<svg t="1657678693232" class="icon" viewBox="0 0 1024 1024" version="1.1" xmlns="http://www.w3.org/2000/svg" p-id="21662" width="32" height="32"><path d="M541.44 972.8h-128L198.4 409.6h381.44l23.04 60.16c3.84 10.24 12.8 16.64 24.32 16.64h371.2c10.24 0 20.48-6.4 24.32-16.64 3.84-10.24 1.28-21.76-6.4-28.16l-216.32-192 67.84-135.68c3.84-7.68 3.84-17.92-1.28-24.32-5.12-7.68-12.8-12.8-21.76-12.8H559.36l-23.04-60.16C532.48 6.4 522.24 0 512 0H25.6C16.64 0 8.96 3.84 5.12 11.52S-1.28 26.88 2.56 34.56l135.68 358.4L358.4 972.8H153.6c-14.08 0-25.6 11.52-25.6 25.6s11.52 25.6 25.6 25.6H541.44c14.08 0 25.6-11.52 25.6-25.6s-11.52-25.6-25.6-25.6zM62.72 51.2h431.36l23.04 60.16c3.84 10.24 12.8 16.64 24.32 16.64h262.4l-58.88 116.48c-5.12 10.24-2.56 23.04 6.4 30.72l179.2 160H645.12l-23.04-60.16c-3.84-10.24-12.8-16.64-24.32-16.64H179.2L62.72 51.2z" fill="#606266" p-id="21663"></path><path d="M878.428432 526.197227c-8.998243-9.098223-21.295841-14.197227-34.193322-14.197227L629.876977 512c-29.794181 0-53.989455 24.095294-53.989455 53.789494L575.887522 968.210896c0 29.6942 24.195274 53.789494 53.989455 53.789494l339.933607 0c29.794181 0 53.989455-24.095294 53.989455-53.789494L1023.800039 691.664909c0-12.69752-4.999024-24.795157-13.997266-33.7934L878.428432 526.197227zM959.812537 958.012888l-319.937512 0 0-381.925405 197.861355 0L959.812537 698.363601 959.812537 958.012888z" fill="#606266" p-id="28756"></path><path d="M691.564929 704.062488l91.882054 0c17.696544 0 31.993751-14.297208 31.993751-31.993751s-14.297208-31.993751-31.993751-31.993751l-91.882054 0c-17.696544 0-31.993751 14.297208-31.993751 31.993751S673.868385 704.062488 691.564929 704.062488z" fill="#606266" p-id="28757"></path><path d="M659.571178 768.04999c0 17.696544 14.297208 31.993751 31.993751 31.993751l206.859598 0c17.696544 0 31.993751-14.297208 31.993751-31.993751s-14.297208-31.993751-31.993751-31.993751l-206.859598 0C673.868385 736.056239 659.571178 750.353447 659.571178 768.04999z" fill="#606266" p-id="28758"></path><path d="M898.424526 832.037493l-206.859598 0c-17.696544 0-31.993751 14.297208-31.993751 31.993751s14.297208 31.993751 31.993751 31.993751l206.859598 0c17.696544 0 31.993751-14.297208 31.993751-31.993751S916.02109 832.037493 898.424526 832.037493z" fill="#606266" p-id="28759"></path></svg>