<svg t="1657678693232" class="icon" viewBox="0 0 1024 1024" version="1.1" xmlns="http://www.w3.org/2000/svg" p-id="21662" width="32" height="32"><path d="M541.44 972.8h-128L198.4 409.6h381.44l23.04 60.16c3.84 10.24 12.8 16.64 24.32 16.64h371.2c10.24 0 20.48-6.4 24.32-16.64 3.84-10.24 1.28-21.76-6.4-28.16l-216.32-192 67.84-135.68c3.84-7.68 3.84-17.92-1.28-24.32-5.12-7.68-12.8-12.8-21.76-12.8H559.36l-23.04-60.16C532.48 6.4 522.24 0 512 0H25.6C16.64 0 8.96 3.84 5.12 11.52S-1.28 26.88 2.56 34.56l135.68 358.4L358.4 972.8H153.6c-14.08 0-25.6 11.52-25.6 25.6s11.52 25.6 25.6 25.6H541.44c14.08 0 25.6-11.52 25.6-25.6s-11.52-25.6-25.6-25.6zM62.72 51.2h431.36l23.04 60.16c3.84 10.24 12.8 16.64 24.32 16.64h262.4l-58.88 116.48c-5.12 10.24-2.56 23.04 6.4 30.72l179.2 160H645.12l-23.04-60.16c-3.84-10.24-12.8-16.64-24.32-16.64H179.2L62.72 51.2z" fill="#606266" p-id="21663"></path><path d="M768 512c-140.8 0-256 115.2-256 256s115.2 256 256 256 256-115.2 256-256-115.2-256-256-256z m0 460.8c-112.64 0-204.8-92.16-204.8-204.8s92.16-204.8 204.8-204.8 204.8 92.16 204.8 204.8-92.16 204.8-204.8 204.8z" fill="#606266" p-id="21664"></path><path d="M870.4 742.4h-76.8v-76.8c0-14.08-11.52-25.6-25.6-25.6s-25.6 11.52-25.6 25.6v76.8h-76.8c-14.08 0-25.6 11.52-25.6 25.6s11.52 25.6 25.6 25.6h76.8v76.8c0 14.08 11.52 25.6 25.6 25.6s25.6-11.52 25.6-25.6v-76.8h76.8c14.08 0 25.6-11.52 25.6-25.6s-11.52-25.6-25.6-25.6z" fill="#606266" p-id="21665"></path></svg>