<svg id="book_" data-name="book+" xmlns="http://www.w3.org/2000/svg" width="29.745" height="30.447" viewBox="0 0 29.745 30.447">
  <rect id="矩形_34" data-name="矩形 34" width="7.928" height="29.447" rx="0.5" transform="translate(0.5 0.5)" fill="none" stroke="#475569" stroke-linecap="round" stroke-linejoin="round" stroke-width="1"/>
  <path id="路径_34" data-name="路径 34" d="M9.673,27.417H5.143A1.133,1.133,0,0,1,4.01,26.284V3.633A1.133,1.133,0,0,1,5.143,2.5h5.663a1.133,1.133,0,0,1,1.133,1.133v7.951" transform="translate(4.327 2.53)" fill="none" stroke="#475569" stroke-linecap="round" stroke-linejoin="round" stroke-width="1"/>
  <path id="路径_35" data-name="路径 35" d="M9.919,11.945,8.107,4.719a1.155,1.155,0,0,1,.838-1.382L13.34,2.25a1.11,1.11,0,0,1,1.359.815l2.265,8.879" transform="translate(9.472 2.169)" fill="none" stroke="#475569" stroke-linecap="round" stroke-linejoin="round" stroke-width="1"/>
  <line id="直线_59" data-name="直线 59" x2="7.928" transform="translate(0.5 22.019)" fill="none" stroke="#475569" stroke-linecap="round" stroke-linejoin="round" stroke-width="1"/>
  <line id="直线_60" data-name="直线 60" x2="5.572" transform="translate(8.428 19.754)" fill="none" stroke="#475569" stroke-linecap="round" stroke-linejoin="round" stroke-width="1"/>
  <line id="直线_61" data-name="直线 61" y2="13.591" transform="translate(22.449 15.903)" fill="none" stroke="#475569" stroke-linecap="round" stroke-linejoin="round" stroke-width="1"/>
  <line id="直线_62" data-name="直线 62" x2="13.591" transform="translate(15.654 22.698)" fill="none" stroke="#475569" stroke-linecap="round" stroke-linejoin="round" stroke-width="1"/>
</svg>
