<svg t="1657675978152" class="icon" viewBox="0 0 1024 1024" version="1.1" xmlns="http://www.w3.org/2000/svg" p-id="23509" width="32" height="32"><path d="M900.266667 746.666667H123.733333C55.466667 746.666667 0 691.2 0 622.933333V162.133333c0-68.266667 55.466667-123.733333 123.733333-123.733333h778.666667c68.266667 0 123.733333 55.466667 123.733333 123.733333v462.933334c-2.133333 66.133333-57.6 121.6-125.866666 121.6zM123.733333 113.066667c-25.6 0-46.933333 21.333333-46.933333 46.933333v462.933333c0 25.6 21.333333 46.933333 46.933333 46.933334h778.666667c25.6 0 46.933333-21.333333 46.933333-46.933334V162.133333c0-25.6-21.333333-46.933333-46.933333-46.933333H123.733333z" fill="#000000" p-id="23510"></path><path d="M206.933333 893.866667l198.4-198.4c12.8-12.8 32-12.8 44.8 0 12.8 12.8 12.8 32 0 44.8L251.733333 938.666667c-12.8 12.8-32 12.8-44.8 0-12.8-12.8-12.8-34.133333 0-44.8zM817.066667 893.866667l-209.066667-209.066667c-12.8-12.8-32-12.8-44.8 0-12.8 12.8-12.8 32 0 44.8l209.066667 209.066667c12.8 12.8 32 12.8 44.8 0 12.8-12.8 12.8-34.133333 0-44.8z" fill="#000000" p-id="23511"></path><path d="M448 554.666667H224c-21.333333 0-36.266667-17.066667-36.266667-36.266667 0-21.333333 17.066667-36.266667 36.266667-36.266667H448c21.333333 0 36.266667 17.066667 36.266667 36.266667 2.133333 19.2-14.933333 36.266667-36.266667 36.266667z" fill="#000000" p-id="23512"></path></svg>