<svg t="1657676687680" class="icon" viewBox="0 0 1024 1024" version="1.1" xmlns="http://www.w3.org/2000/svg" p-id="53024" width="32" height="32"><path d="M583.68 384l212.48 0c15.36 0 25.6-10.24 25.6-25.6 0-15.36-10.24-25.6-25.6-25.6l-212.48 0c-15.36 0-25.6 10.24-25.6 25.6C558.08 371.2 568.32 384 583.68 384z" p-id="53025" fill="#606266"></path><path d="M796.16 499.2l-212.48 0c-15.36 0-25.6 10.24-25.6 25.6 0 15.36 10.24 25.6 25.6 25.6l212.48 0c15.36 0 25.6-10.24 25.6-25.6C821.76 512 811.52 499.2 796.16 499.2z" p-id="53026" fill="#606266"></path><path d="M796.16 668.16l-212.48 0c-15.36 0-25.6 10.24-25.6 25.6 0 15.36 10.24 25.6 25.6 25.6l212.48 0c15.36 0 25.6-10.24 25.6-25.6C821.76 678.4 811.52 668.16 796.16 668.16z" p-id="53027" fill="#606266"></path><path d="M483.84 647.68c-23.04-51.2-64-92.16-115.2-112.64 20.48-20.48 35.84-51.2 35.84-84.48 0-66.56-53.76-117.76-117.76-117.76-66.56 0-117.76 53.76-117.76 117.76 0 33.28 12.8 64 35.84 84.48-51.2 23.04-92.16 61.44-112.64 112.64-2.56 2.56-2.56 7.68-2.56 10.24 0 15.36 10.24 25.6 25.6 25.6 10.24 0 20.48-7.68 23.04-15.36l0 0c25.6-58.88 81.92-99.84 148.48-99.84s125.44 40.96 148.48 99.84l0 0c2.56 10.24 12.8 15.36 23.04 15.36 15.36 0 25.6-10.24 25.6-25.6C486.4 655.36 483.84 650.24 483.84 647.68zM284.16 384c35.84 0 66.56 30.72 66.56 66.56 0 35.84-30.72 66.56-66.56 66.56S217.6 486.4 217.6 450.56C217.6 412.16 248.32 384 284.16 384z" p-id="53028" fill="#606266"></path><path d="M972.8 376.32l0 424.96c0 48.64-38.4 87.04-87.04 87.04L138.24 888.32c-48.64 0-87.04-38.4-87.04-87.04L51.2 222.72c0-48.64 38.4-87.04 87.04-87.04l747.52 0c48.64 0 87.04 38.4 87.04 87.04l0 64 51.2 0L1024 222.72c0-76.8-61.44-138.24-138.24-138.24L138.24 84.48C61.44 84.48 0 145.92 0 222.72l0 578.56c0 76.8 61.44 138.24 138.24 138.24l747.52 0c76.8 0 138.24-61.44 138.24-138.24L1024 376.32 972.8 376.32z" p-id="53029" fill="#606266"></path></svg>