<svg t="1657676764687" class="icon" viewBox="0 0 1024 1024" version="1.1" xmlns="http://www.w3.org/2000/svg" p-id="54549" width="32" height="32"><path d="M268.096 115.392a32 32 0 0 0-64 0V192h64V115.392zM627.904 115.328a32 32 0 1 0-64 0V192h64V115.328zM572.032 822.656A260.032 260.032 0 0 1 832 562.688V256a64 64 0 0 0-64-64H627.904v76.608a32 32 0 1 1-64 0V192H268.096v76.608a32 32 0 0 1-64 0V192H64a64 64 0 0 0-64 64v704a64 64 0 0 0 64 64h605.504c-59.008-47.68-97.472-119.68-97.472-201.344zM63.488 411.712a32 32 0 0 1 32-32h667.712a32 32 0 0 1 0 64H95.424a32 32 0 0 1-31.936-32z m347.904 415.808H127.68a32 32 0 0 1 0-64h283.712a32 32 0 0 1 0 64z m0-129.28H127.68a32 32 0 0 1 0-64h283.712a32 32 0 0 1 0 64zM832 630.784a192.064 192.064 0 0 0 0 384 192.064 192.064 0 0 0 0-384z m-48.512 245.056c-5.824-2.88-7.232-8.384-4.352-16.384 11.648-24.704 12.288-37.056 2.176-37.056h-19.648v104.704c0.704 23.936-13.824 33.088-43.648 27.264-7.232-1.408-10.944-5.504-10.944-12.032 1.408-7.232 5.888-10.112 13.12-8.64 14.592 4.288 21.44 1.344 20.672-8.768V822.4h-34.88c-10.176-6.528-10.176-13.44 0-20.672h48a610.56 610.56 0 0 0-30.528-45.824c-5.12-5.056-5.504-9.792-1.152-14.208 4.352-4.288 9.408-3.968 15.168 1.152 6.656 8 12.8 15.936 18.56 23.936a106.24 106.24 0 0 0 26.176-33.728c1.472-4.416-0.384-6.592-5.44-6.592h-62.144c-6.592 0-9.792-3.264-9.792-9.792s3.264-10.176 9.792-10.88h73.024c16.768 1.408 21.888 10.88 15.296 28.288a138.88 138.88 0 0 1-37.12 49.088c4.416 8.064 6.272 14.208 5.504 18.56h19.648c24.704 0.704 27.584 22.528 8.768 65.344-4.224 7.296-9.728 10.176-16.256 8.768z m28.352 76.288c-9.344 2.176-15.232 0.384-17.408-5.504-1.472-7.232 2.176-12.288 10.88-15.232 37.056-13.056 59.264-39.616 66.496-79.552 1.408-8.704 1.408-25.728 0-51.264-0.704-7.232 2.56-11.264 9.856-12.032 8 0.768 12.288 4.352 13.056 10.944 0 7.232-0.384 16.704-1.152 28.288a417.408 417.408 0 0 1-2.176 28.352c-7.296 47.296-33.792 79.232-79.552 96z m147.136-2.176c-5.12 4.352-10.176 4.352-15.232 0a845.12 845.12 0 0 0-45.824-41.408c-5.824-4.352-7.232-9.088-4.352-14.208 4.352-5.824 9.408-7.296 15.296-4.352 18.112 14.592 34.112 29.056 47.936 43.712 5.12 5.696 5.824 11.136 2.176 16.256z m-6.464-222.464h-63.232a12.544 12.544 0 0 0-1.152 5.504 469.952 469.952 0 0 0-3.264 22.848h51.264c10.176-0.768 15.232 6.912 15.232 22.848v102.528c-0.768 8-4.352 12.288-10.944 13.056-6.528 0-9.792-4.032-9.792-12.032v-95.936c0-6.592-2.88-9.792-8.704-9.792h-66.496c-8.768 0.768-13.12 4.352-13.12 10.944v93.76c-0.704 8-4.288 12.672-10.88 14.144-6.528-0.704-9.792-5.056-9.792-13.056V777.6c-1.472-15.168 6.592-22.528 24-21.76h16.32v-1.152c3.648-11.648 5.824-20.672 6.592-27.264h-42.496c-7.296 0-11.264-3.648-12.032-10.88 0.768-6.592 4.672-10.176 12.032-10.88H953.6c7.296 0.704 11.328 4.736 12.032 11.968-1.536 6.592-5.888 9.856-13.12 9.856z" p-id="54550" fill="#000000"></path></svg>