<svg t="1657676582701" class="icon" viewBox="0 0 1025 1024" version="1.1" xmlns="http://www.w3.org/2000/svg" p-id="49213" width="32" height="32"><path d="M500.33664 354.49856l-29.32224 90.112c-0.69632 2.1248 0.05632 4.48 1.87392 5.80096 1.8176 1.3056 4.2752 1.3056 6.08256 0l76.65664-55.63904 76.48256 55.63904c0.90112 0.65536 1.9712 0.99328 3.04128 0.99328s2.11968-0.33792 3.05152-0.99328c1.82272-1.31584 2.57536-3.64544 1.87904-5.80096l-29.33248-90.112 76.30848-55.48544c1.8176-1.3056 2.58048-3.66592 1.88928-5.78048-0.69632-2.12992-2.70848-3.584-4.9408-3.584l-94.26432 0-29.17888-89.63072c-0.69632-2.11968-2.69312-3.56864-4.93056-3.56864s-4.23424 1.43872-4.93056 3.56864l-29.33248 89.63072L427.25376 289.64864c-2.24768 0-4.2496 1.45408-4.9408 3.584-0.69632 2.11968 0.06656 4.48 1.88928 5.78048L500.33664 354.49856z" p-id="49214" fill="#606266"></path><path d="M404.98176 751.53408c11.70944 0 24.16128-5.248 38.07232-16.03584l115.072-106.62912 108.27776 105.07264 1.95584 1.67936c10.8032 8.20736 21.59104 12.3648 32.04608 12.3648 33.38752 0 48.33792-37.91872 48.33792-75.51488L748.74368 107.68896c0-37.2224-30.27968-67.49696-67.48672-67.49696L429.98784 40.192c-37.21728 0-67.49696 30.27968-67.49696 67.49696l0 564.7872c0 10.59328 0 26.59328 3.14368 40.84224C373.26336 747.81184 395.68896 751.53408 404.98176 751.53408zM405.14048 107.68896c0-13.70112 11.14624-24.85248 24.84736-24.85248l251.26912 0c13.69088 0 24.84224 11.14624 24.84224 24.85248l0 564.7872c0 14.6432-3.80928 27.70944-6.97344 32.31744-0.91648-0.43008-2.25792-1.16736-4.03968-2.432l-136.2944-132.27008-142.57152 132.24448c-3.59936 2.73408-6.28224 4.33664-8.15616 5.2736-1.93536-6.016-2.9184-17.78688-2.9184-35.13344L405.1456 107.68896z" p-id="49215" fill="#606266"></path><path d="M889.88672 189.18912c-11.008-11.19232-28.98432-11.35616-40.20736-0.3328-11.19232 11.008-11.3408 29.0048-0.3328 40.20224 76.20608 77.4912 118.16448 180.03968 118.16448 288.768 0 227.11296-184.77056 411.88352-411.89888 411.88352-211.08736 0-385.49504-159.64672-409.07264-364.5184l51.59424 41.1648c12.27776 9.79968 30.16192 7.77216 39.95648-4.50048 9.79456-12.27264 7.7824-30.16704-4.49536-39.95648l-103.72608-82.7392c-12.21632-9.75872-30.0032-7.78752-39.82848 4.34688L8.38656 584.4224c-9.8816 12.20608-7.99232 30.11072 4.21888 39.98208 5.26336 4.25984 11.58656 6.3232 17.8688 6.3232 8.27904 0 16.49664-3.60448 22.11328-10.5472l37.70368-46.60736c27.66848 232.27904 225.72544 412.99968 465.32096 412.99968 258.47296 0 468.76672-210.27328 468.76672-468.75136C1024.37376 394.09152 976.60928 277.376 889.88672 189.18912z" p-id="49216" fill="#606266"></path><path d="M812.33408 138.5216m-47.37536 0a9.253 9.253 0 1 0 94.75072 0 9.253 9.253 0 1 0-94.75072 0Z" p-id="49217" fill="#606266"></path></svg>